<svg xmlns="http://www.w3.org/2000/svg" width="900" height="420" viewBox="0 0 900 420"><rect width="100%" height="100%" fill="white"/><text x="450.0" y="28" text-anchor="middle" font-family="Arial" font-size="18">Amount Distribution, stratified sample n=99999, seed=42</text><rect x="88.0" y="50.0" width="2.0" height="300.0" fill="#386cb0"/><text x="87.9" y="378" text-anchor="end" transform="rotate(-30 87.9,378)" font-family="Arial" font-size="11">0</text><rect x="103.8" y="322.7" width="2.0" height="27.3" fill="#386cb0"/><text x="103.7" y="378" text-anchor="end" transform="rotate(-30 103.7,378)" font-family="Arial" font-size="11">1</text><rect x="119.6" y="338.1" width="2.0" height="11.9" fill="#386cb0"/><text x="119.5" y="378" text-anchor="end" transform="rotate(-30 119.5,378)" font-family="Arial" font-size="11">2</text><rect x="135.4" y="343.7" width="2.0" height="6.3" fill="#386cb0"/><text x="135.3" y="378" text-anchor="end" transform="rotate(-30 135.3,378)" font-family="Arial" font-size="11">3</text><rect x="151.2" y="345.7" width="2.0" height="4.3" fill="#386cb0"/><text x="151.1" y="378" text-anchor="end" transform="rotate(-30 151.1,378)" font-family="Arial" font-size="11">4</text><rect x="167.0" y="347.3" width="2.0" height="2.7" fill="#386cb0"/><text x="166.9" y="378" text-anchor="end" transform="rotate(-30 166.9,378)" font-family="Arial" font-size="11">5</text><rect x="182.8" y="347.9" width="2.0" height="2.1" fill="#386cb0"/><text x="182.7" y="378" text-anchor="end" transform="rotate(-30 182.7,378)" font-family="Arial" font-size="11">6</text><rect x="198.6" y="348.4" width="2.0" height="1.6" fill="#386cb0"/><text x="198.5" y="378" text-anchor="end" transform="rotate(-30 198.5,378)" font-family="Arial" font-size="11">7</text><rect x="214.4" y="348.7" width="2.0" height="1.3" fill="#386cb0"/><text x="214.3" y="378" text-anchor="end" transform="rotate(-30 214.3,378)" font-family="Arial" font-size="11">8</text><rect x="230.2" y="349.0" width="2.0" height="1.0" fill="#386cb0"/><text x="230.1" y="378" text-anchor="end" transform="rotate(-30 230.1,378)" font-family="Arial" font-size="11">9</text><rect x="246.0" y="349.0" width="2.0" height="1.0" fill="#386cb0"/><text x="245.9" y="378" text-anchor="end" transform="rotate(-30 245.9,378)" font-family="Arial" font-size="11">10</text><rect x="261.8" y="349.3" width="2.0" height="0.7" fill="#386cb0"/><text x="261.7" y="378" text-anchor="end" transform="rotate(-30 261.7,378)" font-family="Arial" font-size="11">11</text><rect x="277.6" y="349.3" width="2.0" height="0.7" fill="#386cb0"/><text x="277.5" y="378" text-anchor="end" transform="rotate(-30 277.5,378)" font-family="Arial" font-size="11">12</text><rect x="293.4" y="349.5" width="2.0" height="0.5" fill="#386cb0"/><text x="293.3" y="378" text-anchor="end" transform="rotate(-30 293.3,378)" font-family="Arial" font-size="11">13</text><rect x="309.2" y="349.6" width="2.0" height="0.4" fill="#386cb0"/><text x="309.1" y="378" text-anchor="end" transform="rotate(-30 309.1,378)" font-family="Arial" font-size="11">14</text><rect x="325.0" y="349.6" width="2.0" height="0.4" fill="#386cb0"/><text x="324.9" y="378" text-anchor="end" transform="rotate(-30 324.9,378)" font-family="Arial" font-size="11">15</text><rect x="340.8" y="349.7" width="2.0" height="0.3" fill="#386cb0"/><text x="340.7" y="378" text-anchor="end" transform="rotate(-30 340.7,378)" font-family="Arial" font-size="11">16</text><rect x="356.6" y="349.8" width="2.0" height="0.2" fill="#386cb0"/><text x="356.5" y="378" text-anchor="end" transform="rotate(-30 356.5,378)" font-family="Arial" font-size="11">17</text><rect x="372.4" y="349.8" width="2.0" height="0.2" fill="#386cb0"/><text x="372.3" y="378" text-anchor="end" transform="rotate(-30 372.3,378)" font-family="Arial" font-size="11">18</text><rect x="388.2" y="349.8" width="2.0" height="0.2" fill="#386cb0"/><text x="388.1" y="378" text-anchor="end" transform="rotate(-30 388.1,378)" font-family="Arial" font-size="11">19</text><rect x="404.0" y="349.7" width="2.0" height="0.3" fill="#386cb0"/><text x="403.9" y="378" text-anchor="end" transform="rotate(-30 403.9,378)" font-family="Arial" font-size="11">20</text><rect x="419.8" y="349.8" width="2.0" height="0.2" fill="#386cb0"/><text x="419.7" y="378" text-anchor="end" transform="rotate(-30 419.7,378)" font-family="Arial" font-size="11">21</text><rect x="435.6" y="349.8" width="2.0" height="0.2" fill="#386cb0"/><text x="435.5" y="378" text-anchor="end" transform="rotate(-30 435.5,378)" font-family="Arial" font-size="11">22</text><rect x="451.4" y="349.8" width="2.0" height="0.2" fill="#386cb0"/><text x="451.3" y="378" text-anchor="end" transform="rotate(-30 451.3,378)" font-family="Arial" font-size="11">23</text><rect x="467.2" y="349.8" width="2.0" height="0.2" fill="#386cb0"/><text x="467.1" y="378" text-anchor="end" transform="rotate(-30 467.1,378)" font-family="Arial" font-size="11">24</text><rect x="483.0" y="349.8" width="2.0" height="0.2" fill="#386cb0"/><text x="482.9" y="378" text-anchor="end" transform="rotate(-30 482.9,378)" font-family="Arial" font-size="11">25</text><rect x="498.8" y="349.9" width="2.0" height="0.1" fill="#386cb0"/><text x="498.7" y="378" text-anchor="end" transform="rotate(-30 498.7,378)" font-family="Arial" font-size="11">26</text><rect x="514.6" y="349.9" width="2.0" height="0.1" fill="#386cb0"/><text x="514.5" y="378" text-anchor="end" transform="rotate(-30 514.5,378)" font-family="Arial" font-size="11">27</text><rect x="530.4" y="349.9" width="2.0" height="0.1" fill="#386cb0"/><text x="530.3" y="378" text-anchor="end" transform="rotate(-30 530.3,378)" font-family="Arial" font-size="11">28</text><rect x="546.2" y="349.8" width="2.0" height="0.2" fill="#386cb0"/><text x="546.1" y="378" text-anchor="end" transform="rotate(-30 546.1,378)" font-family="Arial" font-size="11">29</text><rect x="562.0" y="349.9" width="2.0" height="0.1" fill="#386cb0"/><text x="561.9" y="378" text-anchor="end" transform="rotate(-30 561.9,378)" font-family="Arial" font-size="11">30</text><rect x="577.8" y="349.9" width="2.0" height="0.1" fill="#386cb0"/><text x="577.7" y="378" text-anchor="end" transform="rotate(-30 577.7,378)" font-family="Arial" font-size="11">31</text><rect x="593.6" y="349.9" width="2.0" height="0.1" fill="#386cb0"/><text x="593.5" y="378" text-anchor="end" transform="rotate(-30 593.5,378)" font-family="Arial" font-size="11">32</text><rect x="609.4" y="349.9" width="2.0" height="0.1" fill="#386cb0"/><text x="609.3" y="378" text-anchor="end" transform="rotate(-30 609.3,378)" font-family="Arial" font-size="11">33</text><rect x="625.2" y="349.8" width="2.0" height="0.2" fill="#386cb0"/><text x="625.1" y="378" text-anchor="end" transform="rotate(-30 625.1,378)" font-family="Arial" font-size="11">34</text><rect x="641.0" y="349.9" width="2.0" height="0.1" fill="#386cb0"/><text x="640.9" y="378" text-anchor="end" transform="rotate(-30 640.9,378)" font-family="Arial" font-size="11">35</text><rect x="656.8" y="349.9" width="2.0" height="0.1" fill="#386cb0"/><text x="656.7" y="378" text-anchor="end" transform="rotate(-30 656.7,378)" font-family="Arial" font-size="11">36</text><rect x="672.6" y="349.9" width="2.0" height="0.1" fill="#386cb0"/><text x="672.5" y="378" text-anchor="end" transform="rotate(-30 672.5,378)" font-family="Arial" font-size="11">37</text><rect x="688.4" y="349.9" width="2.0" height="0.1" fill="#386cb0"/><text x="688.3" y="378" text-anchor="end" transform="rotate(-30 688.3,378)" font-family="Arial" font-size="11">38</text><rect x="704.2" y="349.9" width="2.0" height="0.1" fill="#386cb0"/><text x="704.1" y="378" text-anchor="end" transform="rotate(-30 704.1,378)" font-family="Arial" font-size="11">39</text><rect x="720.0" y="349.9" width="2.0" height="0.1" fill="#386cb0"/><text x="719.9" y="378" text-anchor="end" transform="rotate(-30 719.9,378)" font-family="Arial" font-size="11">40</text><rect x="735.8" y="349.9" width="2.0" height="0.1" fill="#386cb0"/><text x="735.7" y="378" text-anchor="end" transform="rotate(-30 735.7,378)" font-family="Arial" font-size="11">41</text><rect x="751.6" y="349.9" width="2.0" height="0.1" fill="#386cb0"/><text x="751.5" y="378" text-anchor="end" transform="rotate(-30 751.5,378)" font-family="Arial" font-size="11">42</text><rect x="767.4" y="349.9" width="2.0" height="0.1" fill="#386cb0"/><text x="767.3" y="378" text-anchor="end" transform="rotate(-30 767.3,378)" font-family="Arial" font-size="11">43</text><rect x="783.2" y="349.9" width="2.0" height="0.1" fill="#386cb0"/><text x="783.1" y="378" text-anchor="end" transform="rotate(-30 783.1,378)" font-family="Arial" font-size="11">44</text><rect x="799.0" y="349.9" width="2.0" height="0.1" fill="#386cb0"/><text x="798.9" y="378" text-anchor="end" transform="rotate(-30 798.9,378)" font-family="Arial" font-size="11">45</text><rect x="814.8" y="350.0" width="2.0" height="0.0" fill="#386cb0"/><text x="814.7" y="378" text-anchor="end" transform="rotate(-30 814.7,378)" font-family="Arial" font-size="11">46</text><rect x="830.6" y="349.9" width="2.0" height="0.1" fill="#386cb0"/><text x="830.5" y="378" text-anchor="end" transform="rotate(-30 830.5,378)" font-family="Arial" font-size="11">47</text><rect x="846.4" y="349.9" width="2.0" height="0.1" fill="#386cb0"/><text x="846.3" y="378" text-anchor="end" transform="rotate(-30 846.3,378)" font-family="Arial" font-size="11">48</text><rect x="862.2" y="346.3" width="2.0" height="3.7" fill="#386cb0"/><text x="862.1" y="378" text-anchor="end" transform="rotate(-30 862.1,378)" font-family="Arial" font-size="11">49</text><line x1="80" y1="350" x2="870" y2="350" stroke="#222"/><line x1="80" y1="50" x2="80" y2="350" stroke="#222"/></svg>
